<svg width="40" height="40" viewBox="0 0 40 40" fill="none" xmlns="http://www.w3.org/2000/svg">
<rect width="40" height="40" rx="20" fill="white"/>
<path d="M19.0615 11.6949C19.379 11.0084 20.3477 11.0084 20.6598 11.6949L22.5703 15.8572C22.6994 16.1351 22.9631 16.3312 23.2645 16.3694L27.7635 16.9196C28.5061 17.0122 28.8075 17.9439 28.2586 18.4614L24.9381 21.5832C24.7121 21.7956 24.6152 22.1062 24.6744 22.4113L25.5463 26.9114C25.6916 27.6578 24.9059 28.2353 24.2493 27.8648L20.2885 25.6365C20.0194 25.484 19.6965 25.484 19.4328 25.6365L15.472 27.8648C14.8154 28.2353 14.0351 27.6578 14.175 26.9114L15.0468 22.4113C15.106 22.1062 15.0038 21.7956 14.7832 21.5832L11.4627 18.4614C10.9138 17.9439 11.2098 17.0122 11.9578 16.9196L16.4568 16.3694C16.7582 16.3312 17.0219 16.1405 17.151 15.8572L19.0615 11.6949Z" fill="#F4B61C"/>
</svg>
