<svg width="50" height="50" viewBox="0 0 50 50" fill="none" xmlns="http://www.w3.org/2000/svg">
<path d="M50 0H0V50H50V0Z" fill="#F5F5F5"/>
<path d="M16.3564 17.4595C16.3564 12.765 20.1625 8.95898 24.8569 8.95898C29.5514 8.95898 33.3574 12.765 33.3574 17.4595" stroke="#8DC060" stroke-width="3" stroke-miterlimit="10"/>
<path d="M33.6199 40.75H16.104C14.6705 40.75 13.4388 39.7303 13.1662 38.3271L9.80438 20.8314C9.45104 18.9839 10.8644 17.2777 12.7422 17.2777H36.9717C38.8495 17.2777 40.2628 18.9839 39.9095 20.8314L36.5476 38.3271C36.2751 39.7404 35.0434 40.75 33.6098 40.75H33.6199Z" fill="#64824B"/>
<path d="M33.5 24.75C34.4665 24.75 35.25 23.9665 35.25 23C35.25 22.0335 34.4665 21.25 33.5 21.25C32.5335 21.25 31.75 22.0335 31.75 23C31.75 23.9665 32.5335 24.75 33.5 24.75Z" fill="white"/>
<path d="M16.5 24.75C17.4665 24.75 18.25 23.9665 18.25 23C18.25 22.0335 17.4665 21.25 16.5 21.25C15.5335 21.25 14.75 22.0335 14.75 23C14.75 23.9665 15.5335 24.75 16.5 24.75Z" fill="white"/>
<path d="M37.42 45.2499C41.7886 45.2499 45.33 41.7085 45.33 37.3399C45.33 32.9714 41.7886 29.4299 37.42 29.4299C33.0514 29.4299 29.51 32.9714 29.51 37.3399C29.51 41.7085 33.0514 45.2499 37.42 45.2499Z" fill="#8DC060"/>
<path d="M37.75 34.25V41.25" stroke="white" stroke-width="1.5" stroke-linecap="round"/>
<path d="M34.255 37.7549L41.255 37.7549" stroke="white" stroke-width="1.5" stroke-linecap="round"/>
</svg>
