<svg width="32" height="32" viewBox="0 0 32 32" fill="none" xmlns="http://www.w3.org/2000/svg">
<rect width="32" height="32" rx="16" fill="#3A3A3A"/>
<path d="M14.506 20.0678L13.223 21.3145C12.8866 21.6509 12.4303 21.8399 11.9546 21.8399C11.4788 21.8399 11.0225 21.6509 10.6861 21.3145C10.3496 20.9781 10.1606 20.5218 10.1606 20.046C10.1606 19.5703 10.3496 19.114 10.6861 18.7775L13.9769 15.4795C14.2999 15.1554 14.7351 14.9679 15.1925 14.9558C15.6499 14.9436 16.0944 15.1078 16.4341 15.4142L16.5211 15.4867C16.6586 15.6213 16.8439 15.6957 17.0362 15.6937C17.2286 15.6917 17.4122 15.6133 17.5468 15.4758C17.6814 15.3384 17.7558 15.1531 17.7538 14.9608C17.7517 14.7684 17.6734 14.5847 17.5359 14.4502C17.495 14.3973 17.4515 14.3465 17.4054 14.298C16.7867 13.7596 15.9864 13.4766 15.1668 13.5062C14.3472 13.5358 13.5694 13.8758 12.9911 14.4574L9.65678 17.7555C9.0902 18.3722 8.78378 19.1839 8.80151 20.0212C8.81924 20.8585 9.15974 21.6565 9.7519 22.2487C10.3441 22.8409 11.1421 23.1814 11.9794 23.1991C12.8166 23.2168 13.6284 22.9104 14.2451 22.3438L15.4991 21.1188C15.6229 20.9837 15.691 20.8068 15.6896 20.6235C15.6882 20.4403 15.6175 20.2644 15.4916 20.1312C15.3658 19.998 15.1942 19.9174 15.0113 19.9057C14.8284 19.8939 14.6479 19.9518 14.506 20.0678ZM22.2547 9.74589C21.6449 9.13992 20.8202 8.7998 19.9605 8.7998C19.1009 8.7998 18.2761 9.13992 17.6664 9.74589L16.4124 10.9709C16.2886 11.106 16.2205 11.2829 16.2219 11.4662C16.2233 11.6494 16.294 11.8253 16.4199 11.9585C16.5457 12.0917 16.7173 12.1723 16.9002 12.184C17.083 12.1958 17.2636 12.1379 17.4054 12.0219L18.6594 10.7752C18.9959 10.4388 19.4522 10.2498 19.9279 10.2498C20.4037 10.2498 20.86 10.4388 21.1964 10.7752C21.5328 11.1116 21.7218 11.5679 21.7218 12.0437C21.7218 12.5194 21.5328 12.9757 21.1964 13.3122L17.9056 16.6102C17.5826 16.9343 17.1474 17.1218 16.69 17.1339C16.2326 17.1461 15.7881 16.9819 15.4483 16.6755L15.3614 16.603C15.2239 16.4684 15.0386 16.394 14.8463 16.396C14.6539 16.398 14.4703 16.4764 14.3357 16.6139C14.2011 16.7513 14.1267 16.9366 14.1287 17.1289C14.1308 17.3213 14.2091 17.505 14.3466 17.6395C14.3992 17.6934 14.4549 17.7442 14.5133 17.7917C15.1328 18.3285 15.9327 18.6104 16.7518 18.5808C17.571 18.5512 18.3485 18.2123 18.9276 17.6323L22.2257 14.3342C22.8355 13.7283 23.1809 12.9057 23.1863 12.046C23.1917 11.1864 22.8568 10.3595 22.2547 9.74589Z" fill="white"/>
</svg>
