<svg width="32" height="32" viewBox="0 0 32 32" fill="none" xmlns="http://www.w3.org/2000/svg">
<rect width="32" height="32" rx="16" fill="#FFE812"/>
<path d="M15.9308 7.2002C10.6673 7.2002 6.40039 10.5645 6.40039 14.7145C6.40039 17.3976 8.18422 19.7519 10.8676 21.0813C10.7216 21.5848 9.92947 24.3202 9.89795 24.5351C9.89795 24.5351 9.87898 24.6965 9.98354 24.7581C10.0881 24.8197 10.2111 24.7718 10.2111 24.7718C10.5109 24.73 13.6881 22.4982 14.238 22.1107C14.7874 22.1885 15.3531 22.2289 15.9308 22.2289C21.1943 22.2289 25.4612 18.8647 25.4612 14.7145C25.4612 10.5645 21.1943 7.2002 15.9308 7.2002Z" fill="#391B1B"/>
<path d="M10.6622 17.3375C10.3589 17.3375 10.1123 17.102 10.1123 16.8124V13.546H9.25441C8.95686 13.546 8.71484 13.3044 8.71484 13.0076C8.71484 12.7108 8.95695 12.4692 9.25441 12.4692H12.0699C12.3675 12.4692 12.6095 12.7108 12.6095 13.0076C12.6095 13.3044 12.3674 13.546 12.0699 13.546H11.212V16.8124C11.212 17.102 10.9654 17.3375 10.6622 17.3375ZM15.4834 17.3304C15.2542 17.3304 15.0788 17.2373 15.0259 17.0875L14.7536 16.3748L13.077 16.3747L12.8046 17.0879C12.7519 17.2374 12.5766 17.3304 12.3473 17.3304C12.2267 17.3305 12.1075 17.3046 11.9978 17.2545C11.8462 17.1846 11.7005 16.9923 11.8675 16.4737L13.1827 13.012C13.2753 12.7487 13.5567 12.4775 13.9149 12.4693C14.274 12.4774 14.5554 12.7487 14.6482 13.0126L15.9629 16.4727C16.1302 16.9925 15.9845 17.1849 15.8329 17.2546C15.7232 17.3046 15.604 17.3305 15.4834 17.3304C15.4834 17.3304 15.4833 17.3304 15.4834 17.3304ZM14.4645 15.4008L13.9153 13.8407L13.3661 15.4008H14.4645ZM16.8477 17.2573C16.5572 17.2573 16.3208 17.0312 16.3208 16.7533V13.0191C16.3208 12.7158 16.5726 12.4692 16.8821 12.4692C17.1916 12.4692 17.4434 12.7158 17.4434 13.0191V16.2493H18.6118C18.9024 16.2493 19.1387 16.4755 19.1387 16.7533C19.1387 17.0312 18.9024 17.2573 18.6118 17.2573H16.8477ZM19.9024 17.3304C19.5992 17.3304 19.3526 17.0838 19.3526 16.7805V13.0191C19.3526 12.7158 19.5992 12.4692 19.9024 12.4692C20.2056 12.4692 20.4522 12.7158 20.4522 13.0191V14.2008L21.9863 12.6668C22.0652 12.5879 22.1736 12.5445 22.2912 12.5445C22.4285 12.5445 22.5663 12.6037 22.6696 12.7069C22.7659 12.8031 22.8234 12.9269 22.8313 13.0554C22.8392 13.1851 22.7961 13.304 22.7099 13.3902L21.457 14.643L22.8104 16.436C22.8541 16.4935 22.8859 16.5591 22.904 16.6291C22.9221 16.699 22.9262 16.7718 22.9159 16.8433C22.9061 16.9149 22.8822 16.9838 22.8456 17.046C22.809 17.1083 22.7604 17.1626 22.7026 17.2059C22.6075 17.2782 22.4913 17.3172 22.3719 17.3169C22.2867 17.3173 22.2026 17.2977 22.1263 17.2598C22.05 17.2218 21.9837 17.1665 21.9327 17.0983L20.6432 15.3898L20.4524 15.5806V16.7803C20.4523 16.9261 20.3943 17.0659 20.2912 17.169C20.188 17.2722 20.0482 17.3302 19.9024 17.3304Z" fill="#FFE812"/>
</svg>
