<svg width="210" height="27" viewBox="0 0 210 27" fill="none" xmlns="http://www.w3.org/2000/svg">
<g clip-path="url(#clip0_943_20)">
<path d="M113.258 8.6498C113.451 9.1498 113.788 9.5998 114.318 9.9998C114.799 10.3998 115.522 10.7998 116.388 11.0998C117.255 11.4498 118.411 11.7498 119.807 12.0498C122.6 12.6998 124.671 13.5998 126.019 14.7498C127.368 15.8998 127.994 17.4498 127.994 19.4998C127.994 20.5998 127.801 21.6498 127.368 22.5498C126.934 23.4498 126.356 24.2498 125.586 24.8998C124.815 25.5498 123.949 26.0498 122.889 26.3998C121.83 26.7498 120.674 26.8998 119.422 26.8998C117.4 26.8998 115.57 26.5498 113.884 25.8998C112.199 25.2498 110.61 24.1998 109.117 22.7498L110.899 20.5998C112.199 21.8498 113.547 22.7498 114.896 23.3998C116.244 23.9998 117.785 24.2998 119.518 24.2998C121.204 24.2998 122.552 23.8998 123.612 23.0498C124.623 22.2498 125.152 21.1498 125.152 19.7998C125.152 19.1998 125.056 18.6498 124.864 18.1498C124.671 17.6498 124.334 17.1998 123.852 16.8498C123.371 16.4498 122.697 16.0998 121.83 15.7498C120.963 15.4498 119.904 15.0998 118.555 14.7998C117.111 14.4998 115.859 14.0998 114.799 13.6998C113.74 13.2998 112.873 12.7498 112.151 12.1498C111.477 11.5498 110.947 10.8498 110.61 10.0498C110.273 9.2498 110.128 8.2998 110.128 7.1998C110.128 6.1498 110.321 5.1998 110.754 4.3498C111.14 3.4998 111.718 2.7498 112.488 2.0998C113.21 1.4498 114.125 0.949805 115.088 0.599805C116.1 0.249805 117.207 0.0498047 118.411 0.0498047C120.241 0.0498047 121.878 0.299805 123.226 0.849805C124.623 1.3998 125.923 2.1498 127.223 3.2498L125.586 5.4998C124.43 4.4998 123.226 3.7998 122.071 3.3498C120.867 2.8998 119.663 2.6998 118.363 2.6998C117.544 2.6998 116.822 2.7998 116.148 3.0498C115.474 3.2498 114.944 3.5498 114.462 3.9498C113.981 4.3498 113.644 4.7498 113.403 5.2998C113.162 5.7998 113.018 6.3998 113.018 6.9998C112.97 7.5498 113.066 8.1498 113.258 8.6498Z" fill="#25347A"/>
<path d="M157.464 18.6C156.838 20.25 155.971 21.65 154.863 22.9C153.756 24.15 152.408 25.15 150.819 25.85C149.229 26.55 147.496 26.95 145.57 26.95C143.644 26.95 141.91 26.6 140.321 25.85C138.732 25.15 137.384 24.15 136.276 22.95C135.168 21.75 134.302 20.3 133.676 18.65C133.05 17 132.761 15.3 132.761 13.5C132.761 11.7 133.05 9.95 133.676 8.35C134.302 6.7 135.168 5.3 136.276 4.05C137.384 2.8 138.732 1.8 140.321 1.1C141.91 0.35 143.644 0 145.57 0C147.496 0 149.229 0.35 150.819 1.1C152.408 1.8 153.756 2.8 154.863 4C155.971 5.2 156.838 6.65 157.464 8.3C158.09 9.95 158.379 11.65 158.379 13.45C158.379 15.25 158.09 17 157.464 18.6ZM154.719 9.35C154.237 8.05 153.563 6.9 152.648 5.9C151.782 4.95 150.722 4.15 149.518 3.6C148.315 3.05 146.966 2.75 145.57 2.75C144.125 2.75 142.825 3.05 141.621 3.6C140.417 4.15 139.358 4.9 138.491 5.9C137.624 6.85 136.95 8 136.469 9.3C135.987 10.6 135.746 12 135.746 13.5C135.746 15 135.987 16.4 136.469 17.7C136.95 19 137.624 20.15 138.539 21.15C139.406 22.1 140.465 22.9 141.669 23.45C142.873 24 144.221 24.3 145.618 24.3C147.014 24.3 148.363 24 149.567 23.45C150.77 22.9 151.83 22.15 152.697 21.15C153.563 20.2 154.237 19.05 154.719 17.75C155.201 16.45 155.441 15.05 155.441 13.55C155.441 12.05 155.201 10.65 154.719 9.35Z" fill="#25347A"/>
<path d="M164.398 0.450195H167.239V23.8002H181.396V26.5002H164.398V0.450195Z" fill="#25347A"/>
<path d="M210 26.6499H206.966L204.029 19.7499H190.353L187.319 26.6499H184.43L195.891 0.399902H198.539L210 26.6499ZM197.191 3.8499L191.461 17.1499H202.921L197.191 3.8499Z" fill="#25347A"/>
<path d="M12.7608 12.35L5.20064 0.1L5.10433 0H0V27H4.91172V8.55L12.5682 20.5H12.9535L20.6581 8.5V27H25.5698V0H20.4173L12.7608 12.35Z" fill="#25347A"/>
<path d="M38.6197 15.7H51.4287V11.05H38.6197V4.65H53.066V0H33.708V27H53.2586V22.35H38.6197V15.7Z" fill="#25347A"/>
<path d="M79.6467 3.85C78.4428 2.65 76.9501 1.7 75.2647 1C73.5793 0.3 71.7013 0 69.6788 0H59.9517V27H69.6788C71.7013 27 73.5793 26.65 75.2647 25.95C76.9501 25.25 78.4428 24.3 79.6467 23.1C80.8505 21.9 81.8136 20.45 82.4878 18.8C83.1619 17.15 83.499 15.35 83.499 13.45C83.499 11.55 83.1619 9.75 82.4878 8.15C81.8136 6.5 80.8987 5.05 79.6467 3.85ZM78.3465 13.55C78.3465 14.85 78.1539 16.05 77.7205 17.1C77.2871 18.15 76.7093 19.1 75.987 19.9C75.2647 20.65 74.3016 21.3 73.2422 21.7C72.1828 22.15 70.9789 22.35 69.6788 22.35H64.8634V4.65H69.6788C70.9789 4.65 72.1828 4.9 73.2422 5.3C74.3016 5.75 75.2165 6.35 75.987 7.15C76.7574 7.95 77.3353 8.9 77.7205 9.95C78.1539 11.05 78.3465 12.25 78.3465 13.55Z" fill="#25347A"/>
<path d="M91.493 16.85H93.9488V0H89.0371V27H93.9488V21.9H91.493V16.85Z" fill="#25347A"/>
<path d="M101.316 16.8501V21.9501H96.4043V16.8501H101.316Z" fill="#25347A"/>
</g>
<defs>
<clipPath id="clip0_943_20">
<rect width="210" height="27" fill="white"/>
</clipPath>
</defs>
</svg>
