<svg width="24" height="24" viewBox="0 0 24 24" fill="none" xmlns="http://www.w3.org/2000/svg">
<mask id="path-1-inside-1_207_5043" fill="white">
<path fill-rule="evenodd" clip-rule="evenodd" d="M18.9392 4.33457C19.1225 4.65279 19.0132 5.0594 18.695 5.24277L6.96771 12.0002L18.695 18.757C19.0132 18.9404 19.1225 19.347 18.9392 19.6652C18.7558 19.9835 18.3492 20.0928 18.031 19.9094L5.30371 12.5764C5.09768 12.4577 4.97071 12.238 4.9707 12.0002C4.9707 11.7624 5.09766 11.5427 5.30369 11.424L18.031 4.09039C18.3492 3.90702 18.7558 4.01635 18.9392 4.33457Z"/>
</mask>
<path d="M18.695 5.24277L19.6935 6.97567L19.6935 6.97567L18.695 5.24277ZM18.9392 4.33457L17.2063 5.33309V5.33309L18.9392 4.33457ZM6.96771 12.0002L5.96919 10.2673L2.96167 12.0002L5.96925 13.7331L6.96771 12.0002ZM18.695 18.757L17.6965 20.49H17.6965L18.695 18.757ZM18.9392 19.6652L20.6721 20.6637L20.6721 20.6637L18.9392 19.6652ZM18.031 19.9094L19.0295 18.1765L19.0295 18.1765L18.031 19.9094ZM5.30371 12.5764L6.30218 10.8435H6.30218L5.30371 12.5764ZM4.9707 12.0002L6.9707 12.0002L4.9707 12.0002ZM5.30369 11.424L6.30221 13.1569L6.30222 13.1569L5.30369 11.424ZM18.031 4.09039L17.0324 2.35748L17.0324 2.35748L18.031 4.09039ZM19.6935 6.97567C20.9688 6.24084 21.4069 4.61133 20.6721 3.33605L17.2063 5.33309C16.8382 4.69425 17.0576 3.87797 17.6965 3.50986L19.6935 6.97567ZM7.96623 13.7331L19.6935 6.97567L17.6965 3.50986L5.96919 10.2673L7.96623 13.7331ZM19.6934 17.0241L7.96617 10.2672L5.96925 13.7331L17.6965 20.49L19.6934 17.0241ZM20.6721 20.6637C21.4069 19.3884 20.9687 17.7589 19.6934 17.0241L17.6965 20.49C17.0577 20.1219 16.8382 19.3056 17.2062 18.6668L20.6721 20.6637ZM17.0325 21.6424C18.3078 22.3772 19.9373 21.939 20.6721 20.6637L17.2062 18.6668C17.5743 18.0279 18.3906 17.8084 19.0295 18.1765L17.0325 21.6424ZM4.30525 14.3093L17.0325 21.6424L19.0295 18.1765L6.30218 10.8435L4.30525 14.3093ZM2.9707 12.0002C2.97072 12.9532 3.47956 13.8336 4.30525 14.3093L6.30218 10.8435C6.7158 11.0818 6.9707 11.5228 6.9707 12.0002L2.9707 12.0002ZM4.30518 9.6911C3.4795 10.1669 2.97069 11.0473 2.9707 12.0002L6.9707 12.0002C6.97071 12.4775 6.71583 12.9186 6.30221 13.1569L4.30518 9.6911ZM17.0324 2.35748L4.30517 9.6911L6.30222 13.1569L19.0295 5.82329L17.0324 2.35748ZM20.6721 3.33605C19.9372 2.06077 18.3077 1.62265 17.0324 2.35748L19.0295 5.82329C18.3907 6.19139 17.5744 5.97193 17.2063 5.33309L20.6721 3.33605Z" fill="#1A1A1A" mask="url(#path-1-inside-1_207_5043)"/>
<rect x="15.3916" y="1.665" width="5.94273" height="6.00333" rx="2.97136" fill="white" stroke="black" stroke-width="1.33"/>
<rect x="2.665" y="8.9985" width="5.94273" height="6.00333" rx="2.97136" fill="white" stroke="black" stroke-width="1.33"/>
<rect x="15.3916" y="16.3315" width="5.94273" height="6.00333" rx="2.97136" fill="white" stroke="black" stroke-width="1.33"/>
</svg>
