<?xml version="1.0" encoding="utf-8"?>
<!-- Generator: Adobe Illustrator 27.7.0, SVG Export Plug-In . SVG Version: 6.00 Build 0)  -->
<svg version="1.1" id="레이어_1" xmlns="http://www.w3.org/2000/svg" xmlns:xlink="http://www.w3.org/1999/xlink" x="0px"
	 y="0px" viewBox="0 0 24 24" style="enable-background:new 0 0 24 24;" xml:space="preserve">
<style type="text/css">
	.st0{fill:#FFFFFF;}
</style>
<g>
	<path class="st0" d="M17,2c2.8,0,5,2.2,5,5v10c0,2.8-2.2,5-5,5H7c-2.8,0-5-2.2-5-5V7c0-2.8,2.2-5,5-5H17 M17,0H7C3.1,0,0,3.1,0,7
		v10c0,3.9,3.1,7,7,7h10c3.9,0,7-3.1,7-7V7C24,3.1,20.9,0,17,0L17,0z"/>
</g>
<g>
	<g>
		<path class="st0" d="M13,8.2c-0.1,0.2-0.2,0.4-0.2,0.7V10h2.3v2h-2.3v6h-2.4v-6H8.8v-1.9h1.7V8.9c0-0.9,0.2-1.6,0.6-2.1
			C11.5,6.3,12.2,6,13.2,6h1.9v2h-1.5C13.3,8,13.1,8,13,8.2z"/>
	</g>
</g>
</svg>
