<svg width="32" height="32" viewBox="0 0 32 32" fill="none" xmlns="http://www.w3.org/2000/svg">
<mask id="path-1-inside-1_207_4484" fill="white">
<path fill-rule="evenodd" clip-rule="evenodd" d="M23.5773 7.67013C23.7596 7.98901 23.6488 8.39523 23.3299 8.57745L10.3403 16.0004L23.3299 23.4227C23.6488 23.6049 23.7596 24.0111 23.5773 24.33C23.3951 24.6489 22.9889 24.7597 22.67 24.5775L8.67004 16.5778C8.46284 16.4594 8.33496 16.239 8.33496 16.0004C8.33496 15.7618 8.46282 15.5414 8.67002 15.423L22.67 7.4227C22.9889 7.24048 23.3951 7.35126 23.5773 7.67013Z"/>
</mask>
<path d="M23.3299 8.57745L22.3376 6.84098V6.84098L23.3299 8.57745ZM23.5773 7.67013L25.3138 6.67782V6.67782L23.5773 7.67013ZM10.3403 16.0004L9.348 14.2639L6.30918 16.0004L9.34806 17.7369L10.3403 16.0004ZM23.3299 23.4227L22.3376 25.1592H22.3376L23.3299 23.4227ZM23.5773 24.33L25.3139 25.3223L25.3139 25.3222L23.5773 24.33ZM22.67 24.5775L21.6778 26.314H21.6778L22.67 24.5775ZM8.67004 16.5778L9.66229 14.8413L9.66229 14.8413L8.67004 16.5778ZM8.33496 16.0004L6.33496 16.0004L8.33496 16.0004ZM8.67002 15.423L7.67771 13.6865H7.67771L8.67002 15.423ZM22.67 7.4227L21.6777 5.68623L21.6777 5.68623L22.67 7.4227ZM24.3222 10.3139C25.6001 9.58366 26.0441 7.95573 25.3138 6.67782L21.8409 8.66244C21.4751 8.02229 21.6974 7.20679 22.3376 6.84098L24.3222 10.3139ZM11.3326 17.7368L24.3222 10.3139L22.3376 6.84098L9.348 14.2639L11.3326 17.7368ZM24.3221 21.6862L11.3326 14.2639L9.34806 17.7369L22.3376 25.1592L24.3221 21.6862ZM25.3139 25.3222C26.0441 24.0443 25.6001 22.4164 24.3221 21.6862L22.3376 25.1592C21.6975 24.7934 21.4751 23.9779 21.8408 23.3378L25.3139 25.3222ZM21.6778 26.314C22.9557 27.0442 24.5836 26.6002 25.3139 25.3223L21.8408 23.3377C22.2066 22.6976 23.0221 22.4752 23.6623 22.841L21.6778 26.314ZM7.67779 18.3143L21.6778 26.314L23.6623 22.841L9.66229 14.8413L7.67779 18.3143ZM6.33496 16.0004C6.33498 16.9568 6.84744 17.8398 7.67779 18.3143L9.66229 14.8413C10.0782 15.0789 10.335 15.5213 10.335 16.0004L6.33496 16.0004ZM7.67771 13.6865C6.84737 14.161 6.33494 15.0441 6.33496 16.0004L10.335 16.0004C10.335 16.4794 10.0783 16.9218 9.66233 17.1595L7.67771 13.6865ZM21.6777 5.68623L7.67771 13.6865L9.66233 17.1595L23.6623 9.15917L21.6777 5.68623ZM25.3138 6.67782C24.5835 5.39993 22.9556 4.95597 21.6777 5.68623L23.6623 9.15917C23.0222 9.52498 22.2067 9.30259 21.8409 8.66244L25.3138 6.67782Z" fill="#1A1A1A" mask="url(#path-1-inside-1_207_4484)"/>
<rect x="19.665" y="4.665" width="6.67" height="6.67" rx="3.335" fill="white" stroke="black" stroke-width="1.33"/>
<rect x="5.665" y="12.665" width="6.67" height="6.67" rx="3.335" fill="white" stroke="black" stroke-width="1.33"/>
<rect x="19.665" y="20.665" width="6.67" height="6.67" rx="3.335" fill="white" stroke="black" stroke-width="1.33"/>
</svg>
