<svg width="32" height="32" viewBox="0 0 32 32" fill="none" xmlns="http://www.w3.org/2000/svg">
<rect width="32" height="32" rx="16" fill="#3A3A3A"/>
<path d="M14.5051 20.0678L13.2221 21.3145C12.8856 21.6509 12.4294 21.8399 11.9536 21.8399C11.4778 21.8399 11.0215 21.6509 10.6851 21.3145C10.3487 20.9781 10.1597 20.5218 10.1597 20.046C10.1597 19.5703 10.3487 19.114 10.6851 18.7775L13.9759 15.4795C14.2989 15.1554 14.7341 14.9679 15.1915 14.9558C15.6489 14.9436 16.0934 15.1078 16.4332 15.4142L16.5201 15.4867C16.6576 15.6213 16.8429 15.6957 17.0352 15.6937C17.2276 15.6917 17.4112 15.6133 17.5458 15.4758C17.6804 15.3384 17.7548 15.1531 17.7528 14.9608C17.7508 14.7684 17.6724 14.5847 17.5349 14.4502C17.494 14.3973 17.4505 14.3465 17.4045 14.298C16.7857 13.7596 15.9854 13.4766 15.1658 13.5062C14.3462 13.5358 13.5684 13.8758 12.9901 14.4574L9.6558 17.7555C9.08923 18.3722 8.78281 19.1839 8.80053 20.0212C8.81826 20.8585 9.15876 21.6565 9.75093 22.2487C10.3431 22.8409 11.1411 23.1814 11.9784 23.1991C12.8157 23.2168 13.6274 22.9104 14.2441 22.3438L15.4981 21.1188C15.6219 20.9837 15.69 20.8068 15.6886 20.6235C15.6872 20.4403 15.6165 20.2644 15.4906 20.1312C15.3648 19.998 15.1932 19.9174 15.0103 19.9057C14.8275 19.8939 14.6469 19.9518 14.5051 20.0678ZM22.2537 9.74589C21.644 9.13992 20.8192 8.7998 19.9596 8.7998C19.0999 8.7998 18.2752 9.13992 17.6654 9.74589L16.4114 10.9709C16.2876 11.106 16.2195 11.2829 16.2209 11.4662C16.2223 11.6494 16.293 11.8253 16.4189 11.9585C16.5447 12.0917 16.7163 12.1723 16.8992 12.184C17.0821 12.1958 17.2626 12.1379 17.4045 12.0219L18.6585 10.7752C18.9949 10.4388 19.4512 10.2498 19.927 10.2498C20.4027 10.2498 20.859 10.4388 21.1954 10.7752C21.5319 11.1116 21.7209 11.5679 21.7209 12.0437C21.7209 12.5194 21.5319 12.9757 21.1954 13.3122L17.9046 16.6102C17.5816 16.9343 17.1464 17.1218 16.689 17.1339C16.2317 17.1461 15.7871 16.9819 15.4474 16.6755L15.3604 16.603C15.2229 16.4684 15.0377 16.394 14.8453 16.396C14.653 16.398 14.4693 16.4764 14.3347 16.6139C14.2002 16.7513 14.1257 16.9366 14.1277 17.1289C14.1298 17.3213 14.2081 17.505 14.3456 17.6395C14.3982 17.6934 14.4539 17.7442 14.5123 17.7917C15.1318 18.3285 15.9317 18.6104 16.7509 18.5808C17.57 18.5512 18.3475 18.2123 18.9267 17.6323L22.2247 14.3342C22.8346 13.7283 23.1799 12.9057 23.1853 12.046C23.1908 11.1864 22.8559 10.3595 22.2537 9.74589Z" fill="white"/>
</svg>
