<svg width="24" height="24" viewBox="0 0 24 24" fill="none" xmlns="http://www.w3.org/2000/svg">
<path fill-rule="evenodd" clip-rule="evenodd" d="M18.1667 10.5C18.1667 14.7342 14.7342 18.1667 10.5 18.1667C6.2658 18.1667 2.8333 14.7342 2.8333 10.5C2.8333 6.2658 6.2658 2.8333 10.5 2.8333C14.7342 2.8333 18.1667 6.2658 18.1667 10.5ZM16.1711 17.4889C14.6233 18.7463 12.6497 19.5 10.5 19.5C5.52944 19.5 1.5 15.4706 1.5 10.5C1.5 5.52944 5.52944 1.5 10.5 1.5C15.4706 1.5 19.5 5.52944 19.5 10.5C19.5 12.8408 18.6063 14.973 17.1416 16.5738L22.2214 21.6536L21.2786 22.5964L16.1711 17.4889Z" fill="#1A1A1A"/>
</svg>
